<svg id="Layer_1" data-name="Layer 1" xmlns="http://www.w3.org/2000/svg" viewBox="0 0 986 135.12"><defs><style>.cls-1{fill:#fff;}</style></defs><title>whiteall</title><path class="cls-1" d="M220.36,5a149.49,149.49,0,0,1,22.57-1.44q19.79,0,30.53,7.88Q286,20.75,286,39.44q0,19.59-12.3,30.05-11.57,9.58-34.13,9.59a160.61,160.61,0,0,1-19.24-1Zm16.73,60.64a50.11,50.11,0,0,0,6,.28q11.68.06,18.29-6.33,6.86-6.66,6.86-19.64,0-11.49-6.32-17.54-6.12-6.06-17.2-6.05a35.34,35.34,0,0,0-7.61.68Z"/><path class="cls-1" d="M300.31,32.4q7.54-9.18,20.67-9.18,12.24,0,18.63,8.43,5.56,7.22,5.57,18.49a35.82,35.82,0,0,1-.68,6.53H309.76a9.48,9.48,0,0,0,4.9,7.75A19.38,19.38,0,0,0,325,66.94a46.34,46.34,0,0,0,14.82-2.32l2.24,11.49a52.41,52.41,0,0,1-19.51,3.4Q309,79.51,301.34,72q-7.54-7.28-7.55-20.13A30.28,30.28,0,0,1,300.31,32.4Zm29.17,12.78a12.69,12.69,0,0,0-1.84-6.87,8.47,8.47,0,0,0-7.61-4,9.23,9.23,0,0,0-7.69,3.81,13.44,13.44,0,0,0-2.65,7.07Z"/><path class="cls-1" d="M356.33,15.34A8.17,8.17,0,0,1,354,9.42,8.4,8.4,0,0,1,356.4,3.3,9,9,0,0,1,362.86.92a8.79,8.79,0,0,1,6.39,2.38,8.45,8.45,0,0,1,2.38,6.12,7.82,7.82,0,0,1-2.32,5.92,9.37,9.37,0,0,1-6.73,2.44A8.48,8.48,0,0,1,356.33,15.34Zm-2,9.11h16.93V78.29h-17Z"/><path class="cls-1" d="M384.48,41.56q0-7.55-.48-17.13h14.68l.75,7.41h.34q5.37-8.64,16.66-8.64,8.63,0,13.73,5.58,5.5,6.12,5.51,17.54v32H418.94V48.44q0-11.69-8.49-11.69-6.27,0-8.5,6.26a11.62,11.62,0,0,0-.61,4.14V78.29H384.48Z"/><path class="cls-1" d="M450.22,61a39.32,39.32,0,0,0,18.69,4.69q11.76,0,11.76-8.09,0-6-12.37-10.4-20.6-7.41-20.6-22a19.66,19.66,0,0,1,7.55-15.9q7.74-6.39,20.6-6.39,11.07,0,18.9,3.67l-3.61,13.52a38.4,38.4,0,0,0-15.57-3.49q-5.16,0-8.09,2.24a5.84,5.84,0,0,0-2.72,5c0,2.13,1.11,4,3.34,5.57q2.64,1.9,10.47,4.9,19.17,7.06,19.17,22.16a20.33,20.33,0,0,1-7.21,16.13q-8.08,7-22.71,7-12.65,0-21-4.62Zm63-28.55q7.54-9.18,20.66-9.18,12.24,0,18.63,8.43,5.58,7.22,5.58,18.49a35.82,35.82,0,0,1-.68,6.53H522.69a9.49,9.49,0,0,0,4.89,7.75,19.38,19.38,0,0,0,10.34,2.52,46.34,46.34,0,0,0,14.82-2.32L555,76.11a52.41,52.41,0,0,1-19.51,3.4q-13.61,0-21.21-7.47-7.54-7.28-7.55-20.13a30.29,30.29,0,0,1,6.51-19.51Zm29.16,12.78a12.68,12.68,0,0,0-1.83-6.87,8.48,8.48,0,0,0-7.62-4,9.21,9.21,0,0,0-7.68,3.81,13.44,13.44,0,0,0-2.65,7.07Zm24.88-3.06q0-11.55-.47-17.67h14.48l.61,9.85h.41q3.94-11.07,14.55-11.08a26.33,26.33,0,0,1,3.67.14V39.2a25.59,25.59,0,0,0-4.62-.48q-9.66,0-11.49,8.43a24.25,24.25,0,0,0-.28,3.81V78.29H567.28ZM607,24.45h18.15l7.34,25q1.43,4.9,3.06,13.06h.27q1.57-7.41,3.06-13.06l6.94-25h17.61L643.37,78.29h-16.8Zm67.23,8q7.54-9.18,20.67-9.18,12.24,0,18.63,8.43,5.57,7.22,5.57,18.49a35,35,0,0,1-.68,6.53H683.67a9.48,9.48,0,0,0,4.9,7.75,19.34,19.34,0,0,0,10.33,2.52,46.34,46.34,0,0,0,14.82-2.32L716,76.11a52.46,52.46,0,0,1-19.52,3.4q-13.59,0-21.21-7.47-7.54-7.28-7.54-20.13a30.29,30.29,0,0,1,6.49-19.51ZM703.4,45.18a12.6,12.6,0,0,0-1.84-6.87,8.47,8.47,0,0,0-7.61-4,9.21,9.21,0,0,0-7.68,3.81,13.27,13.27,0,0,0-2.65,7.07Zm24.88-3.06q0-11.55-.47-17.67h14.48l.61,9.85h.41q3.93-11.07,14.54-11.08a26.49,26.49,0,0,1,3.68.14V39.2a25.79,25.79,0,0,0-4.63-.48q-9.64,0-11.49,8.43a24.24,24.24,0,0,0-.27,3.81V78.29H728.27ZM770.77,4h16.86V32.56H815.3V4H832V78.29H815.29V47.15H787.62V78.29H770.76Zm78.59,26.45q7.89-7.2,20.33-7.21t19.85,7.55q7.76,7.68,7.75,20.53,0,13.94-9.45,21.62-8,6.6-19.51,6.59-11.9,0-19.51-7.41-7.89-7.74-7.89-20.73,0-13.18,8.42-20.94Zm11.56,32.29q3,4.83,8.16,4.83a9,9,0,0,0,8.16-4.76Q880,58.5,880,51.57a23.56,23.56,0,0,0-2.31-11.08q-2.85-5.37-8.56-5.37t-8.5,5.37a22.76,22.76,0,0,0-2.31,10.88,22,22,0,0,0,2.64,11.35Zm46.64.88A27.21,27.21,0,0,0,922,67.75q7.2,0,7.2-4.55,0-3.47-7.81-6.19Q906,51.85,906,40.83a15.71,15.71,0,0,1,5.85-12.64q6.12-5,16-5a34.31,34.31,0,0,1,15.23,3.06l-3,11.56a26,26,0,0,0-11.69-3.13q-6.39,0-6.39,4.49,0,3.06,8.77,6.18,14.4,5,14.61,16.59a15.32,15.32,0,0,1-5.88,12.62q-6.25,5-17.47,5-10.47,0-17.41-3.87Zm50-4.82v-22h-7.27V24.48h7.27V12.82L974,9v15.5h12v12.3H974V56.19q0,9.53,6.46,9.52a20.33,20.33,0,0,0,5.1-.54L985.7,78a35,35,0,0,1-10.85,1.54q-8.22,0-12.71-4.76t-4.56-16Z"/><rect class="cls-1" y="68.85" width="66.42" height="66.27" rx="8.09" ry="8.09"/><rect class="cls-1" x="84.01" y="65.2" width="49.36" height="49.24" rx="8.38" ry="8.38"/><rect class="cls-1" x="115.29" y="11.22" width="34.78" height="34.7" rx="8.72" ry="8.72"/><rect class="cls-1" x="49.24" width="45.97" height="45.86" rx="11.52" ry="11.52"/><path class="cls-1" d="M286.71,127.56a15.7,15.7,0,0,0,7.53,1.89c3.16,0,4.75-1.08,4.75-3.26,0-1.61-1.67-3-5-4.19q-8.31-3-8.31-8.85a8,8,0,0,1,3.05-6.42,12.66,12.66,0,0,1,8.3-2.57,17.81,17.81,0,0,1,7.62,1.48l-1.45,5.45a15.48,15.48,0,0,0-6.28-1.42,5.24,5.24,0,0,0-3.26.9,2.35,2.35,0,0,0-1.1,2,2.75,2.75,0,0,0,1.35,2.25,21.17,21.17,0,0,0,4.22,2q7.72,2.85,7.72,8.94a8.19,8.19,0,0,1-2.9,6.52q-3.27,2.79-9.15,2.79a17.27,17.27,0,0,1-8.47-1.86Z"/><path class="cls-1" d="M313.84,108.22a16.55,16.55,0,0,1,11.56-4.08q5.07,0,7.4,1.31l-1.45,5.35a13.74,13.74,0,0,0-5.62-1.13,9.45,9.45,0,0,0-6.79,2.47,11.37,11.37,0,0,0-.25,14.58,9.46,9.46,0,0,0,7.1,2.66,15.09,15.09,0,0,0,5.64-1l1,5.34a18.51,18.51,0,0,1-7.68,1.29q-7.5,0-11.72-4.33-4-4-3.95-10.68Q309.07,112.56,313.84,108.22Z"/><path class="cls-1" d="M336.86,104.56h6.79v11.51h11.16V104.56h6.74v30h-6.74V122H343.65v12.58h-6.79Z"/><path class="cls-1" d="M367.39,104.56h7.89l6.19,11a88,88,0,0,1,4.93,10.27h.11a113.8,113.8,0,0,1-.57-12.52v-8.75h6.22v30h-7l-6.44-11.51a107,107,0,0,1-5.21-10.58h-.17q.32,5.53.31,13.13v9h-6.22Z"/><path class="cls-1" d="M398,104.56h18.45v5.56H404.82v6.22h11v5.51h-11V129h12.3v5.61H398Z"/><path class="cls-1" d="M421.73,104.56h6.79v24.3h11.92v5.7H421.73Z"/><path class="cls-1" d="M444.39,104.56h6.8v24.3h11.92v5.7H444.39Z"/><path class="cls-1" d="M520.81,119.92q0-7.29,4.9-11.56,4.66-4.08,12.2-4.08a20.44,20.44,0,0,1,8.33,1.42l-1.43,5.48a17,17,0,0,0-6.93-1.31,10.18,10.18,0,0,0-7.13,2.41,9.25,9.25,0,0,0-2.87,7.29,9.66,9.66,0,0,0,2.68,7.2,9.09,9.09,0,0,0,6.77,2.61,8.72,8.72,0,0,0,3.32-.44v-6.28h-4.58v-5.28h11.12v15.78a29.09,29.09,0,0,1-10,1.67q-8,0-12.19-4T520.81,119.92Z"/><path class="cls-1" d="M552.35,104.56h6.74V121.9q0,7.74,5.48,7.73t5.51-7.73V104.56h6.74v16.9q0,13.56-12.5,13.56-12,0-12-13.64Zm5.59-2.66a3,3,0,0,1-.91-2.22,2.91,2.91,0,0,1,.91-2.22,3.11,3.11,0,0,1,2.27-.88,3,3,0,0,1,2.17.85,3.36,3.36,0,0,1,0,4.47,2.91,2.91,0,0,1-2.17.9,3.08,3.08,0,0,1-2.27-.88Zm9.37,0a3.24,3.24,0,0,1,0-4.44,3.2,3.2,0,0,1,2.27-.88,3,3,0,0,1,2.17.85,3.26,3.26,0,0,1,0,4.47,3,3,0,0,1-2.2.9,3.17,3.17,0,0,1-2.24-.88Z"/><path class="cls-1" d="M582.6,104.56h7.89l6.2,11a91.31,91.31,0,0,1,4.93,10.27h.11a113.81,113.81,0,0,1-.58-12.52v-8.75h6.22v30h-7l-6.44-11.51a111.55,111.55,0,0,1-5.21-10.58h-.16q.3,5.53.3,13.13v9H582.6Z"/><path class="cls-1" d="M613.46,127.56a15.7,15.7,0,0,0,7.53,1.89c3.16,0,4.74-1.08,4.74-3.26,0-1.61-1.66-3-5-4.19q-8.31-3-8.31-8.85a8,8,0,0,1,3-6.42,12.66,12.66,0,0,1,8.3-2.57,17.81,17.81,0,0,1,7.62,1.48L630,111.07a15.27,15.27,0,0,0-6.27-1.42,5.24,5.24,0,0,0-3.26.9,2.35,2.35,0,0,0-1.1,2,2.75,2.75,0,0,0,1.34,2.25,21.26,21.26,0,0,0,4.23,2q7.72,2.85,7.72,8.94a8.21,8.21,0,0,1-2.9,6.52q-3.27,2.79-9.15,2.79a17.27,17.27,0,0,1-8.47-1.86Z"/><path class="cls-1" d="M642.56,110.28h-8.08v-5.72h23v5.7h-8.16v24.3h-6.8Z"/><path class="cls-1" d="M661.09,104.56h6.79v30h-6.79Z"/><path class="cls-1" d="M672,119.92q0-7.29,4.91-11.56,4.65-4.08,12.19-4.08a20.28,20.28,0,0,1,8.33,1.42L696,111.18a17,17,0,0,0-6.94-1.31,10.22,10.22,0,0,0-7.12,2.41,9.24,9.24,0,0,0-2.88,7.29,9.67,9.67,0,0,0,2.69,7.2,9.09,9.09,0,0,0,6.77,2.61,8.64,8.64,0,0,0,3.31-.44v-6.28h-4.57v-5.28h11.12v15.78a29.09,29.09,0,0,1-10,1.67q-8,0-12.2-4T672,119.92Z"/><path class="cls-1" d="M756.08,104.93a58.37,58.37,0,0,1,9.15-.6q6.19,0,9.16,2.41a8.28,8.28,0,0,1,3.2,6.94,9.1,9.1,0,0,1-2.77,7.07q-3.36,3.16-9.7,3.17c-.31,0-1.08,0-2.33-.11v10.66h-6.71Zm6.71,13.63a11.32,11.32,0,0,0,2.25.17,6.24,6.24,0,0,0,4.22-1.32,4.23,4.23,0,0,0,1.59-3.53q0-4.41-5.29-4.41a14.27,14.27,0,0,0-2.77.16Z"/><path class="cls-1" d="M781.65,104.93a58.92,58.92,0,0,1,9-.6q6.72,0,9.7,2.33a7.58,7.58,0,0,1,2.77,6.28,7.22,7.22,0,0,1-1.72,4.76,7.73,7.73,0,0,1-3.59,2.58v.16c1.9.75,3.23,2.62,4,5.59,1.46,5.3,2.28,8.12,2.46,8.44h-7a33,33,0,0,1-2.08-7,7.24,7.24,0,0,0-1.7-3.76,4.47,4.47,0,0,0-3.18-1h-2v11.78H781.6ZM791,117.81a6.22,6.22,0,0,0,4-1.17,3.81,3.81,0,0,0,1.43-3.13q0-4.11-5-4.19a17.48,17.48,0,0,0-3.07.22v8.27Z"/><path class="cls-1" d="M808,104.56h18.4v5.57H814.75v6.22h11v5.5h-11V129h12.31v5.56H808Z"/><path class="cls-1" d="M831.66,104.93a58.37,58.37,0,0,1,9.15-.6c4.13,0,7.19.8,9.16,2.41a8.28,8.28,0,0,1,3.2,6.94,9.1,9.1,0,0,1-2.77,7.07q-3.36,3.16-9.7,3.17c-.31,0-1.08,0-2.33-.11v10.66h-6.71Zm6.71,13.63a11.32,11.32,0,0,0,2.25.17,6.24,6.24,0,0,0,4.22-1.32,4.23,4.23,0,0,0,1.59-3.53q0-4.41-5.29-4.41a14.27,14.27,0,0,0-2.77.16Z"/><path class="cls-1" d="M859.78,104.56h8.87L878,134.47h-7.34l-2.31-7.67h-8.57l-2.14,7.67h-7Zm7.56,17.27-1.84-6.42c-.18-.62-.68-2.53-1.5-5.75h-.14l-1.34,5.75-1.76,6.42Z"/><path class="cls-1" d="M881.92,104.56h6.79v29.95h-6.79Z"/><path class="cls-1" d="M894.55,104.93a60.23,60.23,0,0,1,9.1-.6q8,0,12.3,3.18,5.06,3.75,5,11.29,0,7.89-5,12.11-4.65,3.87-13.75,3.87a65,65,0,0,1-7.76-.41Zm6.74,24.45a21.6,21.6,0,0,0,2.41.11,10.06,10.06,0,0,0,7.38-2.55q2.76-2.68,2.76-7.92c0-3.09-.85-5.44-2.54-7.07a9.43,9.43,0,0,0-6.94-2.44,14.37,14.37,0,0,0-3.07.27Z"/><circle class="cls-1" cx="491.96" cy="119.55" r="10.39"/><circle class="cls-1" cx="727.36" cy="119.55" r="10.39"/></svg>